<?xml version="1.0" encoding="utf-8"?>
<!-- Generator: Adobe Illustrator 15.1.0, SVG Export Plug-In  -->
<!DOCTYPE svg PUBLIC "-//W3C//DTD SVG 1.1//EN" "http://www.w3.org/Graphics/SVG/1.1/DTD/svg11.dtd" [
	<!ENTITY ns_flows "http://ns.adobe.com/Flows/1.0/">
]>
<svg version="1.1"
	 xmlns="http://www.w3.org/2000/svg" xmlns:xlink="http://www.w3.org/1999/xlink" xmlns:a="http://ns.adobe.com/AdobeSVGViewerExtensions/3.0/"
	 x="0px" y="0px" width="160px" height="160px" viewBox="-32 -26 160 160" enable-background="new -32 -26 160 160"
	 xml:space="preserve">
<defs>
</defs>
<path fill="#6C6C6C" d="M95,14H81V1.264L95,13.75V14z M106,54v31H95v15.75L88.583,107h-83L0,100.75v-95L5.583,0H77v14.465V18h4.083
	H95v36H106z M19,30c0,1.657,1.343,3,3,3h50c1.657,0,3-1.343,3-3s-1.343-3-3-3H22C20.343,27,19,28.343,19,30z M19,46
	c0,1.657,1.343,3,3,3h50c1.657,0,3-1.343,3-3s-1.343-3-3-3H22C20.343,43,19,44.343,19,46z M102,58H72H54H22
	c-1.381,0-2.5,1.119-2.5,2.5S20.619,63,22,63h32v11H22c-1.381,0-2.5,1.119-2.5,2.5S20.619,79,22,79h32v2h48V58z"/>
<path fill="#E31B23" d="M66.939,63.482h4.177c1.308,0,1.962,0.594,1.962,1.782v3.618c0,1.188-0.654,1.782-1.962,1.782H69.01v4.176
	h-2.07V63.482z M71.008,68.595v-3.042c0-0.191-0.035-0.32-0.107-0.387s-0.205-0.1-0.396-0.1H69.01v4.015h1.494
	c0.191,0,0.324-0.033,0.396-0.099C70.973,68.916,71.008,68.787,71.008,68.595z M74.95,63.482h4.319c1.309,0,1.963,0.594,1.963,1.782
	v7.794c0,1.188-0.654,1.782-1.963,1.782H74.95V63.482z M79.145,72.843V65.48c0-0.191-0.037-0.32-0.108-0.387
	c-0.072-0.066-0.204-0.1-0.396-0.1H77.02v8.334h1.621c0.191,0,0.323-0.032,0.396-0.098C79.107,73.164,79.145,73.035,79.145,72.843z
	 M88.846,65.066h-3.42v3.457h2.79v1.512h-2.79v4.806h-2.088V63.482h5.508V65.066z"/>
</svg>
