<?xml version="1.0" encoding="utf-8"?>
<!-- Generator: Adobe Illustrator 15.1.0, SVG Export Plug-In  -->
<!DOCTYPE svg PUBLIC "-//W3C//DTD SVG 1.1//EN" "http://www.w3.org/Graphics/SVG/1.1/DTD/svg11.dtd" [
	<!ENTITY ns_flows "http://ns.adobe.com/Flows/1.0/">
]>
<svg version="1.1"
	 xmlns="http://www.w3.org/2000/svg" xmlns:xlink="http://www.w3.org/1999/xlink" xmlns:a="http://ns.adobe.com/AdobeSVGViewerExtensions/3.0/"
	 x="0px" y="0px" width="160px" height="160px" viewBox="-32 -26 160 160" enable-background="new -32 -26 160 160"
	 xml:space="preserve">
<defs>
</defs>
<path fill="#6C6C6C" d="M95,14H81V1.264L95,13.75V14z M106,54v31H95v15.75L88.583,107h-83L0,100.75v-95L5.583,0H77v14.465V18h4.083
	H95v36H106z M19,30c0,1.657,1.343,3,3,3h50c1.657,0,3-1.343,3-3s-1.343-3-3-3H22C20.343,27,19,28.343,19,30z M19,46
	c0,1.657,1.343,3,3,3h50c1.657,0,3-1.343,3-3s-1.343-3-3-3H22C20.343,43,19,44.343,19,46z M102,58H72H54H22
	c-1.381,0-2.5,1.119-2.5,2.5S20.619,63,22,63h32v11H22c-1.381,0-2.5,1.119-2.5,2.5S20.619,79,22,79h32v2h48V58z"/>
<path fill="#00AFEF" d="M64.501,74.841l-0.432-2.358h-2.484l-0.396,2.358h-2.07l2.286-11.358h2.79l2.394,11.358H64.501z
	 M61.855,70.917h1.926l-0.99-5.437L61.855,70.917z M72.079,63.482h2.069v9.576c0,1.188-0.653,1.782-1.961,1.782h-2.196
	c-1.308,0-1.962-0.595-1.962-1.782v-9.576h2.07v9.289c0,0.191,0.035,0.32,0.107,0.387s0.204,0.099,0.396,0.099h0.953
	c0.205,0,0.342-0.032,0.414-0.099s0.108-0.195,0.108-0.387V63.482z M76.398,63.482h4.32c1.309,0,1.962,0.594,1.962,1.782v7.794
	c0,1.188-0.653,1.782-1.962,1.782h-4.32V63.482z M80.593,72.843V65.48c0-0.191-0.036-0.32-0.108-0.387s-0.203-0.1-0.396-0.1h-1.62
	v8.334h1.62c0.192,0,0.323-0.032,0.396-0.098C80.557,73.164,80.593,73.035,80.593,72.843z M84.895,63.482h2.07v11.358h-2.07V63.482z
	 M91.141,63.482h2.195c1.309,0,1.963,0.594,1.963,1.782v7.794c0,1.188-0.654,1.782-1.963,1.782h-2.195
	c-1.309,0-1.963-0.595-1.963-1.782v-7.794C89.178,64.076,89.832,63.482,91.141,63.482z M93.229,72.771v-7.219
	c0-0.191-0.036-0.32-0.108-0.387c-0.071-0.066-0.204-0.1-0.396-0.1H91.77c-0.203,0-0.342,0.033-0.413,0.1
	c-0.072,0.066-0.108,0.195-0.108,0.387v7.219c0,0.191,0.036,0.32,0.108,0.387c0.071,0.066,0.21,0.099,0.413,0.099h0.955
	c0.191,0,0.324-0.032,0.396-0.099C93.192,73.092,93.229,72.963,93.229,72.771z"/>
</svg>
