<?xml version="1.0" encoding="utf-8"?>
<!-- Generator: Adobe Illustrator 15.1.0, SVG Export Plug-In  -->
<!DOCTYPE svg PUBLIC "-//W3C//DTD SVG 1.1//EN" "http://www.w3.org/Graphics/SVG/1.1/DTD/svg11.dtd" [
	<!ENTITY ns_flows "http://ns.adobe.com/Flows/1.0/">
]>
<svg version="1.1"
	 xmlns="http://www.w3.org/2000/svg" xmlns:xlink="http://www.w3.org/1999/xlink" xmlns:a="http://ns.adobe.com/AdobeSVGViewerExtensions/3.0/"
	 x="0px" y="0px" width="160px" height="160px" viewBox="-32 -26 160 160" enable-background="new -32 -26 160 160"
	 xml:space="preserve">
<defs>
</defs>
<path fill="#6C6C6C" d="M95,14H81V1.264L95,13.75V14z M106,54v31H95v15.75L88.583,107h-83L0,100.75v-95L5.583,0H77v14.465V18h4.083
	H95v36H106z M19,30c0,1.657,1.343,3,3,3h50c1.657,0,3-1.343,3-3s-1.343-3-3-3H22C20.343,27,19,28.343,19,30z M19,46
	c0,1.657,1.343,3,3,3h50c1.657,0,3-1.343,3-3s-1.343-3-3-3H22C20.343,43,19,44.343,19,46z M102,58H72H54H22
	c-1.381,0-2.5,1.119-2.5,2.5S20.619,63,22,63h32v11H22c-1.381,0-2.5,1.119-2.5,2.5S20.619,79,22,79h32v2h48V58z"/>
<path fill="#00467F" d="M67.265,63.482h2.069v11.358h-2.069V63.482z M73.457,74.841H71.62V63.482h2.269l1.908,6.75l1.908-6.75h2.268
	v11.358h-1.818v-7.974l-1.512,5.508h-1.674l-1.512-5.49V74.841z M88.107,66.975H86.02V65.48c0-0.191-0.035-0.32-0.107-0.387
	s-0.205-0.1-0.396-0.1H84.67c-0.192,0-0.324,0.033-0.396,0.1s-0.107,0.195-0.107,0.387v7.381c0,0.191,0.035,0.32,0.107,0.387
	s0.204,0.099,0.396,0.099h0.846c0.191,0,0.324-0.032,0.396-0.099s0.107-0.195,0.107-0.387v-2.521h-0.9v-1.458h2.988v4.193
	c0,1.188-0.654,1.783-1.962,1.783h-2.106c-1.308,0-1.961-0.595-1.961-1.783v-7.812c0-1.188,0.653-1.782,1.961-1.782h2.106
	c1.308,0,1.962,0.594,1.962,1.782V66.975z"/>
</svg>
