<?xml version="1.0" encoding="utf-8"?>
<!-- Generator: Adobe Illustrator 15.1.0, SVG Export Plug-In  -->
<!DOCTYPE svg PUBLIC "-//W3C//DTD SVG 1.1//EN" "http://www.w3.org/Graphics/SVG/1.1/DTD/svg11.dtd" [
	<!ENTITY ns_flows "http://ns.adobe.com/Flows/1.0/">
]>
<svg version="1.1"
	 xmlns="http://www.w3.org/2000/svg" xmlns:xlink="http://www.w3.org/1999/xlink" xmlns:a="http://ns.adobe.com/AdobeSVGViewerExtensions/3.0/"
	 x="0px" y="0px" width="160px" height="160px" viewBox="-32 -26 160 160" enable-background="new -32 -26 160 160"
	 xml:space="preserve">
<defs>
</defs>
<path fill="#6C6C6C" d="M95,14H81V1.264L95,13.75V14z M106,54v31H95v15.75L88.583,107h-83L0,100.75v-95L5.583,0H77v14.465V18h4.083
	H95v36H106z M19,30c0,1.657,1.343,3,3,3h50c1.657,0,3-1.343,3-3s-1.343-3-3-3H22C20.343,27,19,28.343,19,30z M19,46
	c0,1.657,1.343,3,3,3h50c1.657,0,3-1.343,3-3s-1.343-3-3-3H22C20.343,43,19,44.343,19,46z M102,58H72H54H22
	c-1.381,0-2.5,1.119-2.5,2.5S20.619,63,22,63h32v11H22c-1.381,0-2.5,1.119-2.5,2.5S20.619,79,22,79h32v2h48V58z"/>
<path fill="#E37F1C" d="M61.791,72.217v-2.295c0-0.182-0.033-0.303-0.102-0.365s-0.192-0.094-0.373-0.094h-1.378
	c-1.167,0-1.751-0.566-1.751-1.7v-2.635c0-1.122,0.612-1.683,1.836-1.683h1.87c1.224,0,1.836,0.561,1.836,1.683v1.496h-1.972V65.4
	c0-0.182-0.034-0.304-0.102-0.366c-0.068-0.062-0.193-0.093-0.375-0.093h-0.646c-0.192,0-0.323,0.031-0.392,0.093
	c-0.067,0.063-0.102,0.185-0.102,0.366v2.158c0,0.182,0.034,0.304,0.102,0.365c0.068,0.063,0.199,0.094,0.392,0.094h1.343
	c1.189,0,1.785,0.556,1.785,1.666v2.805c0,1.123-0.617,1.684-1.854,1.684h-1.836c-1.234,0-1.853-0.561-1.853-1.684V71.01h1.955
	v1.207c0,0.182,0.034,0.303,0.103,0.365c0.067,0.063,0.197,0.094,0.391,0.094h0.646c0.181,0,0.305-0.031,0.373-0.094
	S61.791,72.398,61.791,72.217z M71.209,66.998h-1.972v-1.666c0-0.182-0.034-0.303-0.103-0.365c-0.067-0.063-0.192-0.094-0.373-0.094
	h-0.799c-0.182,0-0.307,0.031-0.375,0.094s-0.102,0.184-0.102,0.365v6.97c0,0.182,0.033,0.304,0.102,0.366s0.193,0.093,0.375,0.093
	h0.799c0.181,0,0.306-0.03,0.373-0.093c0.068-0.063,0.103-0.185,0.103-0.366V70.67h1.972v1.836c0,1.122-0.617,1.684-1.853,1.684
	h-1.989c-1.235,0-1.854-0.562-1.854-1.684v-7.378c0-1.122,0.618-1.683,1.854-1.683h1.989c1.235,0,1.853,0.561,1.853,1.683V66.998z
	 M74.967,69.99v4.182h-1.955V63.445h3.943c1.235,0,1.854,0.561,1.854,1.683v3.179c0,0.93-0.414,1.474-1.241,1.633l1.785,4.232
	h-2.108l-1.632-4.182H74.967z M74.967,64.941v3.604h1.41c0.182,0,0.307-0.031,0.375-0.094c0.067-0.063,0.102-0.184,0.102-0.365V65.4
	c0-0.182-0.034-0.304-0.102-0.366c-0.068-0.062-0.193-0.093-0.375-0.093H74.967z M80.848,63.445h1.955v10.727h-1.955V63.445z
	 M84.963,63.445h3.943c1.235,0,1.854,0.561,1.854,1.683v3.417c0,1.122-0.618,1.684-1.854,1.684h-1.988v3.943h-1.955V63.445z
	 M88.805,68.273V65.4c0-0.182-0.034-0.304-0.102-0.366c-0.068-0.062-0.193-0.093-0.375-0.093h-1.41v3.791h1.41
	c0.182,0,0.307-0.031,0.375-0.094C88.771,68.576,88.805,68.454,88.805,68.273z M97.423,63.445v1.496h-1.887v9.23h-1.955v-9.23h-1.87
	v-1.496H97.423z"/>
</svg>
