<?xml version="1.0" encoding="utf-8"?>
<!-- Generator: Adobe Illustrator 15.1.0, SVG Export Plug-In  -->
<!DOCTYPE svg PUBLIC "-//W3C//DTD SVG 1.1//EN" "http://www.w3.org/Graphics/SVG/1.1/DTD/svg11.dtd" [
	<!ENTITY ns_flows "http://ns.adobe.com/Flows/1.0/">
]>
<svg version="1.1"
	 xmlns="http://www.w3.org/2000/svg" xmlns:xlink="http://www.w3.org/1999/xlink" xmlns:a="http://ns.adobe.com/AdobeSVGViewerExtensions/3.0/"
	 x="0px" y="0px" width="160px" height="160px" viewBox="-32 -26 160 160" enable-background="new -32 -26 160 160"
	 xml:space="preserve">
<defs>
</defs>
<path fill="#6C6C6C" d="M95,14H81V1.264L95,13.75V14z M106,54v31H95v15.75L88.583,107h-83L0,100.75v-95L5.583,0H77v14.465V18h4.083
	H95v36H106z M19,30c0,1.657,1.343,3,3,3h50c1.657,0,3-1.343,3-3s-1.343-3-3-3H22C20.343,27,19,28.343,19,30z M19,46
	c0,1.657,1.343,3,3,3h50c1.657,0,3-1.343,3-3s-1.343-3-3-3H22C20.343,43,19,44.343,19,46z M102,58H72H54H22
	c-1.381,0-2.5,1.119-2.5,2.5S20.619,63,22,63h32v11H22c-1.381,0-2.5,1.119-2.5,2.5S20.619,79,22,79h32v2h48V58z"/>
<path fill="#5A4099" d="M64.879,63.482h2.125l-2.25,11.358h-2.719l-2.25-11.358h2.143l1.457,9.18L64.879,63.482z M68.533,63.482
	h2.07v11.358h-2.07V63.482z M72.979,63.482h4.32c1.309,0,1.962,0.594,1.962,1.782v7.794c0,1.188-0.653,1.782-1.962,1.782h-4.32
	V63.482z M77.173,72.843V65.48c0-0.191-0.036-0.32-0.108-0.387s-0.203-0.1-0.396-0.1h-1.62v8.334h1.62
	c0.192,0,0.323-0.032,0.396-0.098C77.137,73.164,77.173,73.035,77.173,72.843z M83.455,73.257h3.456v1.584h-5.544V63.482h5.4v1.584
	h-3.313v3.15h2.79v1.602h-2.79V73.257z M90.438,63.482h2.196c1.308,0,1.962,0.594,1.962,1.782v7.794
	c0,1.188-0.654,1.782-1.962,1.782h-2.196c-1.308,0-1.962-0.595-1.962-1.782v-7.794C88.477,64.076,89.131,63.482,90.438,63.482z
	 M92.526,72.771v-7.219c0-0.191-0.036-0.32-0.108-0.387c-0.071-0.066-0.203-0.1-0.396-0.1h-0.954c-0.204,0-0.342,0.033-0.414,0.1
	s-0.107,0.195-0.107,0.387v7.219c0,0.191,0.035,0.32,0.107,0.387s0.21,0.099,0.414,0.099h0.954c0.192,0,0.324-0.032,0.396-0.099
	C92.49,73.092,92.526,72.963,92.526,72.771z"/>
</svg>
