<?xml version="1.0" encoding="utf-8"?>
<!-- Generator: Adobe Illustrator 15.1.0, SVG Export Plug-In  -->
<!DOCTYPE svg PUBLIC "-//W3C//DTD SVG 1.1//EN" "http://www.w3.org/Graphics/SVG/1.1/DTD/svg11.dtd" [
	<!ENTITY ns_flows "http://ns.adobe.com/Flows/1.0/">
]>
<svg version="1.1"
	 xmlns="http://www.w3.org/2000/svg" xmlns:xlink="http://www.w3.org/1999/xlink" xmlns:a="http://ns.adobe.com/AdobeSVGViewerExtensions/3.0/"
	 x="0px" y="0px" width="160px" height="160px" viewBox="-32 -26 160 160" enable-background="new -32 -26 160 160"
	 xml:space="preserve">
<defs>
</defs>
<path fill="#6C6C6C" d="M95,14H81V1.264L95,13.75V14z M106,54v31H95v15.75L88.583,107h-83L0,100.75v-95L5.583,0H77v14.465V18h4.083
	H95v36H106z M19,30c0,1.657,1.343,3,3,3h50c1.657,0,3-1.343,3-3s-1.343-3-3-3H22C20.343,27,19,28.343,19,30z M19,46
	c0,1.657,1.343,3,3,3h50c1.657,0,3-1.343,3-3s-1.343-3-3-3H22C20.343,43,19,44.343,19,46z M102,58H72H54H22
	c-1.381,0-2.5,1.119-2.5,2.5S20.619,63,22,63h32v11H22c-1.381,0-2.5,1.119-2.5,2.5S20.619,79,22,79h32v2h48V58z"/>
<path fill="#0079C1" d="M68.965,63.482h2.053L69.02,74.841h-2.628l-1.278-8.01l-1.26,8.01h-2.628l-1.998-11.358h2.142l1.17,9.217
	l1.494-9.217h2.178l1.477,9.217L68.965,63.482z M74.401,63.482h2.196c1.308,0,1.962,0.594,1.962,1.782v7.794
	c0,1.188-0.654,1.782-1.962,1.782h-2.196c-1.308,0-1.962-0.595-1.962-1.782v-7.794C72.439,64.076,73.094,63.482,74.401,63.482z
	 M76.489,72.771v-7.219c0-0.191-0.036-0.32-0.108-0.387c-0.071-0.066-0.203-0.1-0.396-0.1h-0.954c-0.204,0-0.342,0.033-0.414,0.1
	s-0.107,0.195-0.107,0.387v7.219c0,0.191,0.035,0.32,0.107,0.387s0.21,0.099,0.414,0.099h0.954c0.192,0,0.324-0.032,0.396-0.099
	C76.453,73.092,76.489,72.963,76.489,72.771z M82.753,70.412v4.429h-2.07V63.482h4.177c1.307,0,1.961,0.594,1.961,1.782v3.366
	c0,0.984-0.438,1.561-1.313,1.729l1.89,4.481h-2.231l-1.728-4.429H82.753z M82.753,65.066v3.816h1.494
	c0.191,0,0.323-0.033,0.396-0.1c0.072-0.065,0.108-0.194,0.108-0.387v-2.844c0-0.191-0.036-0.32-0.108-0.387s-0.204-0.1-0.396-0.1
	H82.753z M88.963,63.482h4.32c1.308,0,1.961,0.594,1.961,1.782v7.794c0,1.188-0.653,1.782-1.961,1.782h-4.32V63.482z M93.156,72.843
	V65.48c0-0.191-0.035-0.32-0.107-0.387s-0.204-0.1-0.396-0.1h-1.619v8.334h1.619c0.192,0,0.324-0.032,0.396-0.098
	C93.121,73.164,93.156,73.035,93.156,72.843z"/>
</svg>
