<?xml version="1.0" encoding="utf-8"?>
<!-- Generator: Adobe Illustrator 15.1.0, SVG Export Plug-In  -->
<!DOCTYPE svg PUBLIC "-//W3C//DTD SVG 1.1//EN" "http://www.w3.org/Graphics/SVG/1.1/DTD/svg11.dtd" [
	<!ENTITY ns_flows "http://ns.adobe.com/Flows/1.0/">
]>
<svg version="1.1"
	 xmlns="http://www.w3.org/2000/svg" xmlns:xlink="http://www.w3.org/1999/xlink" xmlns:a="http://ns.adobe.com/AdobeSVGViewerExtensions/3.0/"
	 x="0px" y="0px" width="160px" height="160px" viewBox="-32 -26 160 160" enable-background="new -32 -26 160 160"
	 xml:space="preserve">
<defs>
</defs>
<path fill="#6C6C6C" d="M95,14H81V1.264L95,13.75V14z M106,54v31H95v15.75L88.583,107h-83L0,100.75v-95L5.583,0H77v14.465V18h4.083
	H95v36H106z M19,30c0,1.657,1.343,3,3,3h50c1.657,0,3-1.343,3-3s-1.343-3-3-3H22C20.343,27,19,28.343,19,30z M19,46
	c0,1.657,1.343,3,3,3h50c1.657,0,3-1.343,3-3s-1.343-3-3-3H22C20.343,43,19,44.343,19,46z M102,58H72H54H22
	c-1.381,0-2.5,1.119-2.5,2.5S20.619,63,22,63h32v11H22c-1.381,0-2.5,1.119-2.5,2.5S20.619,79,22,79h32v2h48V58z"/>
<path fill="#D04727" d="M67.372,63.482h4.177c1.307,0,1.961,0.594,1.961,1.782v3.618c0,1.188-0.654,1.782-1.961,1.782h-2.106v4.176
	h-2.07V63.482z M71.44,68.595v-3.042c0-0.191-0.036-0.32-0.108-0.387s-0.204-0.1-0.396-0.1h-1.494v4.015h1.494
	c0.191,0,0.323-0.033,0.396-0.099C71.404,68.916,71.44,68.787,71.44,68.595z M75.292,63.482h4.177c1.307,0,1.961,0.594,1.961,1.782
	v3.618c0,1.188-0.654,1.782-1.961,1.782h-2.106v4.176h-2.07V63.482z M79.36,68.595v-3.042c0-0.191-0.036-0.32-0.108-0.387
	s-0.204-0.1-0.396-0.1h-1.494v4.015h1.494c0.191,0,0.323-0.033,0.396-0.099C79.324,68.916,79.36,68.787,79.36,68.595z
	 M88.486,63.482v1.584h-1.998v9.774h-2.07v-9.774h-1.98v-1.584H88.486z"/>
</svg>
