<?xml version="1.0" encoding="utf-8"?>
<!-- Generator: Adobe Illustrator 15.1.0, SVG Export Plug-In  -->
<!DOCTYPE svg PUBLIC "-//W3C//DTD SVG 1.1//EN" "http://www.w3.org/Graphics/SVG/1.1/DTD/svg11.dtd" [
	<!ENTITY ns_flows "http://ns.adobe.com/Flows/1.0/">
]>
<svg version="1.1"
	 xmlns="http://www.w3.org/2000/svg" xmlns:xlink="http://www.w3.org/1999/xlink" xmlns:a="http://ns.adobe.com/AdobeSVGViewerExtensions/3.0/"
	 x="0px" y="0px" width="160px" height="160px" viewBox="-32 -26 160 160" enable-background="new -32 -26 160 160"
	 xml:space="preserve">
<defs>
</defs>
<path fill="#6C6C6C" d="M95,14H81V1.264L95,13.75V14z M106,54v31H95v15.75L88.583,107h-83L0,100.75v-95L5.583,0H77v14.465V18h4.083
	H95v36H106z M19,30c0,1.657,1.343,3,3,3h50c1.657,0,3-1.343,3-3s-1.343-3-3-3H22C20.343,27,19,28.343,19,30z M19,46
	c0,1.657,1.343,3,3,3h50c1.657,0,3-1.343,3-3s-1.343-3-3-3H22C20.343,43,19,44.343,19,46z M102,58H72H54H22
	c-1.381,0-2.5,1.119-2.5,2.5S20.619,63,22,63h32v11H22c-1.381,0-2.5,1.119-2.5,2.5S20.619,79,22,79h32v2h48V58z"/>
<path fill="#78A22F" d="M71.594,69.045l2.592,5.796h-2.305l-1.422-3.978l-1.439,3.978h-2.214l2.502-5.796l-2.376-5.563h2.322
	l1.205,3.744l1.207-3.744h2.231L71.594,69.045z M77.623,73.257h3.024v1.584h-5.095V63.482h2.07V73.257z M85.615,72.771v-2.431
	c0-0.192-0.035-0.321-0.107-0.388c-0.072-0.064-0.205-0.098-0.396-0.098h-1.458c-1.235,0-1.854-0.601-1.854-1.801v-2.79
	c0-1.188,0.648-1.782,1.944-1.782h1.979c1.297,0,1.945,0.594,1.945,1.782v1.584H85.58v-1.296c0-0.191-0.037-0.32-0.109-0.387
	c-0.071-0.066-0.203-0.1-0.396-0.1h-0.684c-0.204,0-0.343,0.033-0.414,0.1c-0.072,0.066-0.108,0.195-0.108,0.387v2.286
	c0,0.192,0.036,0.321,0.108,0.387c0.071,0.066,0.21,0.099,0.414,0.099h1.422c1.26,0,1.89,0.589,1.89,1.765v2.97
	c0,1.188-0.654,1.782-1.962,1.782h-1.944c-1.308,0-1.961-0.595-1.961-1.782v-1.566h2.069v1.279c0,0.191,0.036,0.32,0.108,0.387
	s0.209,0.099,0.414,0.099h0.684c0.191,0,0.324-0.032,0.396-0.099S85.615,72.963,85.615,72.771z"/>
</svg>
